<svg xmlns="http://www.w3.org/2000/svg" viewBox="0 0 402.286 402.286"><path d="M292.571 147.853h-20.898V90.384a70.005 70.005 0 00-19.853-48.065 68.966 68.966 0 00-48.065-19.853c-37.51 0-67.918 30.408-67.918 67.918v57.469h-20.898V90.384c0-49.052 39.764-88.816 88.816-88.816s88.816 39.764 88.816 88.816v57.469z" fill="#00acea"/><path d="M402.286 144.718l-39.184 213.159c-4.716 24.634-26.121 42.543-51.2 42.841H90.384c-25.079-.298-46.484-18.207-51.2-42.841L0 144.718h402.286z" fill="#00efd1"/><g fill="#00acea"><path d="M282.122 259.657c-5.771 0-10.449-4.678-10.449-10.449v-31.347c0-5.771 4.678-10.449 10.449-10.449s10.449 4.678 10.449 10.449v31.347c0 5.771-4.678 10.449-10.449 10.449zM125.388 259.657c-5.771 0-10.449-4.678-10.449-10.449v-31.347c0-5.771 4.678-10.449 10.449-10.449s10.449 4.678 10.449 10.449v31.347c0 5.771-4.678 10.449-10.449 10.449z"/></g></svg>